<?xml version="1.0" encoding="iso-8859-1"?>
<!-- Generator: Adobe Illustrator 19.0.0, SVG Export Plug-In . SVG Version: 6.00 Build 0)  -->
<svg xmlns="http://www.w3.org/2000/svg" xmlns:xlink="http://www.w3.org/1999/xlink" version="1.1" id="Capa_1" x="0px" y="0px" viewBox="0 0 496 496" style="enable-background:new 0 0 496 496;" xml:space="preserve" width="512px" height="512px">
<g>
	<g>
		<path d="M237.6,146.4l-13.6-12V88c0-4.8-3.2-8-8-8h-32c-4.8,0-8,3.2-8,8v3.2l-10.4-9.6c-3.2-2.4-8-2.4-10.4,0l-72,64    c-2.4,1.6-3.2,4-3.2,6.4v96c0,4.8,3.2,8,8,8h144c4.8,0,8-3.2,8-8v-96C240,149.6,239.2,147.2,237.6,146.4z M192,96h16v24l-16-14.4    V96z M128,240H96v-16h32V240z M176,240h-32v-64h32V240z M224,240h-32v-16h32V240z M224,208h-32v-40c0-4.8-3.2-8-8-8h-48    c-4.8,0-8,3.2-8,8v40H96v-52.8l64-56.8l64,56.8V208z" fill="#E83B3E"/>
	</g>
</g>
<g>
	<g>
		<path d="M312,144c-31.2,0-56,24.8-56,56s24.8,56,56,56s56-24.8,56-56S343.2,144,312,144z M312,240c-22.4,0-40-17.6-40-40    c0-22.4,17.6-40,40-40c22.4,0,40,17.6,40,40C352,222.4,334.4,240,312,240z" fill="#E83B3E"/>
	</g>
</g>
<g>
	<g>
		<path d="M330.4,178.4L304,204.8l-10.4-10.4l-11.2,11.2l16,16c3.2,3.2,8,3.2,11.2,0l32-32L330.4,178.4z" fill="#E83B3E"/>
	</g>
</g>
<g>
	<g>
		<path d="M122.4,274.4L96,300.8l-10.4-10.4l-11.2,11.2l16,16c3.2,3.2,8,3.2,11.2,0l32-32L122.4,274.4z" fill="#E83B3E"/>
	</g>
</g>
<g>
	<g>
		<rect x="144" y="304" width="224" height="16" fill="#E83B3E"/>
	</g>
</g>
<g>
	<g>
		<path d="M122.4,322.4L96,348.8l-10.4-10.4l-11.2,11.2l16,16c3.2,3.2,8,3.2,11.2,0l32-32L122.4,322.4z" fill="#E83B3E"/>
	</g>
</g>
<g>
	<g>
		<rect x="144" y="352" width="224" height="16" fill="#E83B3E"/>
	</g>
</g>
<g>
	<g>
		<path d="M122.4,370.4L96,396.8l-10.4-10.4l-11.2,11.2l16,16c3.2,3.2,8,3.2,11.2,0l32-32L122.4,370.4z" fill="#E83B3E"/>
	</g>
</g>
<g>
	<g>
		<rect x="144" y="400" width="224" height="16" fill="#E83B3E"/>
	</g>
</g>
<g>
	<g>
		<path d="M122.4,418.4L96,444.8l-10.4-10.4l-11.2,11.2l16,16c3.2,3.2,8,3.2,11.2,0l32-32L122.4,418.4z" fill="#E83B3E"/>
	</g>
</g>
<g>
	<g>
		<rect x="144" y="448" width="224" height="16" fill="#E83B3E"/>
	</g>
</g>
<g>
	<g>
		<path d="M440,0H88c-4.8,0-8,3.2-8,8v40H56c-4.8,0-8,3.2-8,8v432c0,4.8,3.2,8,8,8h336c4.8,0,8-3.2,8-8v-24h40c4.8,0,8-3.2,8-8V8    C448,3.2,444.8,0,440,0z M384,480H64V64h264v48c0,4.8,3.2,8,8,8h48V480z M344,104V75.2l28.8,28.8H344z M432,448h-32V112    c0-2.4-0.8-4-2.4-5.6l-56-56c-1.6-1.6-3.2-2.4-5.6-2.4H96V16h336V448z" fill="#E83B3E"/>
	</g>
</g>
<g>
</g>
<g>
</g>
<g>
</g>
<g>
</g>
<g>
</g>
<g>
</g>
<g>
</g>
<g>
</g>
<g>
</g>
<g>
</g>
<g>
</g>
<g>
</g>
<g>
</g>
<g>
</g>
<g>
</g>
</svg>
