<?xml version="1.0" encoding="iso-8859-1"?>
<!-- Generator: Adobe Illustrator 19.0.0, SVG Export Plug-In . SVG Version: 6.00 Build 0)  -->
<svg xmlns="http://www.w3.org/2000/svg" xmlns:xlink="http://www.w3.org/1999/xlink" version="1.1" id="Capa_1" x="0px" y="0px" viewBox="0 0 496.039 496.039" style="enable-background:new 0 0 496.039 496.039;" xml:space="preserve" width="512px" height="512px">
<g>
	<g>
		<path d="M456.02,169.6V82.4l10.4-3.2c4-1.6,6.4-5.6,5.6-9.6c-0.8-2.4-3.2-4.8-5.6-5.6l-216-64c-1.6,0-3.2,0-4.8,0l-216,64    c-4,1.6-6.4,6.4-5.6,10.4c0.8,2.4,3.2,4.8,5.6,5.6l98.4,28.8V184c0,14.4,13.6,26.4,34.4,34.4c-69.6,47.2-87.2,141.6-40,211.2    c47.2,69.6,141.6,87.2,211.2,40s87.2-141.6,40-211.2c-10.4-16-24.8-29.6-40-40c20.8-8,34.4-19.2,34.4-34.4v-75.2l72-21.6v82.4    c-9.6,3.2-16,12-16,22.4v32c0,4.8,3.2,8,8,8h8v16h16v-16h8c4.8,0,8-3.2,8-8v-32C472.02,181.6,465.62,172.8,456.02,169.6z     M183.22,224.8c7.2,1.6,14.4,3.2,22.4,4c-18.4,32.8-28,69.6-29.6,107.2h-64C115.22,288.8,141.62,247.2,183.22,224.8z M112.82,352    h64c0.8,40,12,79.2,32.8,113.6l6.4,10.4C157.62,461.6,116.02,411.2,112.82,352z M260.02,479.2c-4,0.8-8,0.8-12,0.8s-8,0-12-0.8    l-13.6-22.4c-20-33.6-30.4-72-30.4-111.2v-4c0-39.2,10.4-77.6,30.4-111.2c8,0.8,16.8,0.8,25.6,0.8s16.8,0,25.6-0.8    c20,33.6,30.4,72,30.4,111.2v4c0,39.2-10.4,77.6-30.4,111.2L260.02,479.2z M280.82,476l6.4-10.4c20.8-34.4,32-73.6,32.8-113.6h64    C380.02,411.2,338.42,461.6,280.82,476z M384.02,336h-64c-0.8-37.6-11.2-74.4-29.6-107.2c8-0.8,15.2-2.4,22.4-4    C354.42,247.2,380.82,288.8,384.02,336z M352.02,184c0,12.8-40.8,32-104,32s-104-19.2-104-32v-70.4l101.6,30.4    c1.6,0.8,3.2,0.8,4.8,0l101.6-30.4V184z M248.02,128l-188-56l188-56l188,56L248.02,128z M456.02,216h-16v-24c0-4.8,3.2-8,8-8    s8,3.2,8,8V216z" fill="#E83B3E"/>
	</g>
</g>
<g>
	<g>
		<path d="M248.02,48c-13.6,0-24,10.4-24,24s10.4,24,24,24c13.6,0,24-10.4,24-24S261.62,48,248.02,48z M248.02,80c-4.8,0-8-3.2-8-8    s3.2-8,8-8s8,3.2,8,8S252.82,80,248.02,80z" fill="#E83B3E"/>
	</g>
</g>
<g>
	<g>
		<path d="M256.02,417.6V294.4c12.8-4.8,19.2-18.4,14.4-30.4c-4.8-12.8-18.4-19.2-30.4-14.4c-12.8,4.8-19.2,18.4-14.4,30.4    c2.4,7.2,8,12,14.4,14.4v123.2c-12.8,4.8-19.2,18.4-14.4,30.4c4.8,12.8,18.4,19.2,30.4,14.4c9.6-3.2,16-12,16-22.4    C272.02,429.6,265.62,420.8,256.02,417.6z M248.02,264c4.8,0,8,3.2,8,8s-3.2,8-8,8s-8-3.2-8-8S243.22,264,248.02,264z M248.02,448    c-4.8,0-8-3.2-8-8s3.2-8,8-8s8,3.2,8,8S252.82,448,248.02,448z" fill="#E83B3E"/>
	</g>
</g>
<g>
</g>
<g>
</g>
<g>
</g>
<g>
</g>
<g>
</g>
<g>
</g>
<g>
</g>
<g>
</g>
<g>
</g>
<g>
</g>
<g>
</g>
<g>
</g>
<g>
</g>
<g>
</g>
<g>
</g>
</svg>
