<?xml version="1.0"?>
<svg xmlns="http://www.w3.org/2000/svg" height="512px" viewBox="0 0 496 496" width="512px"><path d="m344 351.988281h-24v-67.992187c0-15.441406-12.558594-28-27.992188-28l-12.007812-.007813c-8.824219 0-16 7.175781-16 16v32c0 12.519531-5.984375 24.488281-16 32-6.871094 5.160157-15.398438 8-24 8h-32v-16h-80v16h-112v128h112v16h80v-9.871093l12.6875 7.613281c11.191406 6.714843 24 10.257812 37.039062 10.257812h102.273438c13.230469 0 24-10.769531 24-24 0-6.167969-2.40625-11.746093-6.238281-16 3.839843-4.257812 6.238281-9.832031 6.238281-16s-2.40625-11.746093-6.238281-16c3.839843-4.257812 6.238281-9.832031 6.238281-16s-2.40625-11.746093-6.238281-16c3.839843-4.257812 6.238281-9.832031 6.238281-16 0-13.234375-10.769531-24-24-24zm8 24c0 4.414063-3.59375 8-8 8h-48c-4.40625 0-8-3.585937-8-8 0-4.417969 3.59375-8 8-8h48c4.40625 0 8 3.582031 8 8zm0 32c0 4.414063-3.59375 8-8 8h-48c-4.40625 0-8-3.585937-8-8 0-4.417969 3.59375-8 8-8h48c4.40625 0 8 3.582031 8 8zm0 32c0 4.414063-3.59375 8-8 8h-48c-4.40625 0-8-3.585937-8-8 0-4.417969 3.59375-8 8-8h48c4.40625 0 8 3.582031 8 8zm-336 16v-96h96v96zm160 16h-48v-128h16v112.007813h16v-112.007813h16zm36.921875.023438-20.921875-12.550781v-99.472657h32c12.039062 0 23.976562-3.976562 33.601562-11.199219 14.023438-10.511718 22.398438-27.265624 22.398438-44.800781v-32l12.007812.007813c6.617188 0 11.992188 5.382812 11.992188 12v67.992187h-8c-13.230469 0-24 10.765625-24 24 0 6.167969 2.40625 11.742188 6.238281 16-3.839843 4.253907-6.238281 9.832031-6.238281 16s2.40625 11.742188 6.238281 16c-3.839843 4.253907-6.238281 9.832031-6.238281 16s2.40625 11.742188 6.238281 16c-3.839843 4.253907-6.238281 9.832031-6.238281 16 0 2.816407.574219 5.488281 1.472656 8h-31.753906c-10.132812 0-20.09375-2.761719-28.796875-7.976562zm131.078125 7.976562h-48c-4.40625 0-8-3.585937-8-8 0-4.417969 3.59375-8 8-8h48c4.40625 0 8 3.582031 8 8 0 4.414063-3.59375 8-8 8zm0 0" fill="#E83B3E"/><path d="m440 39.988281h-15.617188c-4.023437-8.097656-9.496093-15.496093-16.367187-21.648437-15.230469-13.640625-35.703125-20.167969-56.199219-17.894532-24.289062 2.6875-45.503906 18.261719-56.25 39.542969h-31.566406c-30.878906 0-56 25.128907-56 56v80c0 30.871094 25.121094 56 56 56h72v38.945313l58.425781-38.945313h45.574219c30.878906 0 56-25.128906 56-56v-80c0-30.871093-25.121094-56-56-56zm-135.296875 22.96875c3.777344-24.289062 24.335937-43.890625 48.863281-46.609375 2.1875-.238281 4.355469-.359375 6.496094-.359375 13.832031 0 26.875 4.953125 37.28125 14.261719 11.855469 10.617188 18.65625 25.832031 18.65625 41.738281 0 17.773438-8.191406 34.09375-22.496094 44.800781-5.953125 4.460938-9.503906 11.589844-9.503906 19.054688v8.144531h-16v-49.472656c9.289062-3.3125 16-12.113281 16-22.527344 0-13.234375-10.769531-24-24-24s-24 10.765625-24 24c0 10.414063 6.710938 19.214844 16 22.527344v49.472656h-16v-8.160156c0-7.457031-3.566406-14.585937-9.542969-19.074219-16.640625-12.46875-24.976562-33.078125-21.753906-53.796875zm31.296875 97.03125h48v8c0 4.414063-3.59375 8-8 8h-32c-4.40625 0-8-3.585937-8-8zm16-88c0-4.417969 3.59375-8 8-8s8 3.582031 8 8c0 4.414063-3.59375 8-8 8s-8-3.585937-8-8zm128 104c0 22.054688-17.945312 40-40 40h-50.425781l-37.574219 25.054688v-25.054688h-88c-22.054688 0-40-17.945312-40-40v-80c0-22.054687 17.945312-40 40-40h25.800781c-.335937 1.496094-.671875 2.992188-.90625 4.511719-4.132812 26.566406 6.578125 53.03125 27.960938 69.054688 1.992187 1.503906 3.144531 3.792968 3.144531 6.273437v8.160156h-16v16h16v8c0 13.230469 10.769531 24 24 24h32c13.230469 0 24-10.769531 24-24v-8h16v-16h-16v-8.144531c0-2.464844 1.167969-4.808594 3.105469-6.257812 18.367187-13.742188 28.894531-34.742188 28.894531-57.597657 0-5.433593-.65625-10.792969-1.847656-16h9.847656c22.054688 0 40 17.945313 40 40zm0 0" fill="#E83B3E"/></svg>
