<?xml version="1.0"?>
<svg xmlns="http://www.w3.org/2000/svg" id="Layer_3" enable-background="new 0 0 64 64" height="512px" viewBox="0 0 64 64" width="512px"><g><path d="m25 13c0-6.617-5.383-12-12-12s-12 5.383-12 12 5.383 12 12 12 12-5.383 12-12zm-22 0c0-5.514 4.486-10 10-10s10 4.486 10 10-4.486 10-10 10-10-4.486-10-10z" fill="#E83B3E"/><path d="m14 22v-2.142c1.721-.447 3-1.999 3-3.858 0-2.206-1.794-4-4-4-1.103 0-2-.897-2-2s.897-2 2-2 2 .897 2 2h2c0-1.859-1.279-3.411-3-3.858v-2.142h-2v2.142c-1.721.447-3 1.999-3 3.858 0 2.206 1.794 4 4 4 1.103 0 2 .897 2 2s-.897 2-2 2-2-.897-2-2h-2c0 1.859 1.279 3.411 3 3.858v2.142z" fill="#E83B3E"/><path d="m62.592 12.193-15-11c-.354-.258-.83-.258-1.184 0l-15 11 1.184 1.613 4.408-3.232v12.426c0 .553.447 1 1 1h18c.553 0 1-.447 1-1v-12.426l4.408 3.233zm-12.592 9.807h-6v-8h6zm5 0h-3v-9c0-.553-.447-1-1-1h-8c-.553 0-1 .447-1 1v9h-3v-12.893l8-5.867 8 5.867z" fill="#E83B3E"/><path d="m45 18h2v2h-2z" fill="#E83B3E"/><path d="m52 50h-5v-5h2c.459 0 .859-.313.971-.759.11-.446-.097-.91-.503-1.125l-17-9c-.293-.154-.643-.154-.936 0l-17 9c-.406.215-.613.679-.503 1.125.112.446.512.759.971.759h2v5h-5v-24h-2v25c0 .553.447 1 1 1h6v5h-2c-.553 0-1 .447-1 1v4c0 .553.447 1 1 1h34c.553 0 1-.447 1-1v-4c0-.553-.447-1-1-1h-2v-5h6c.553 0 1-.447 1-1v-25h-2zm-20-13.868 12.974 6.868h-25.948zm3 20.868v-12h6v12zm-6-12v12h-6v-12zm2 0h2v12h-2zm-12 0h2v12h-2zm29 16h-32v-2h32zm-5-4v-12h2v12z" fill="#E83B3E"/></g></svg>
